<svg width="18" height="18" viewBox="0 0 18 18" fill="none" xmlns="http://www.w3.org/2000/svg">
<path d="M13.1667 1.78333C14.4236 2.50904 15.4692 3.55043 16.1999 4.80441C16.9307 6.05839 17.3212 7.48147 17.3329 8.93278C17.3447 10.3841 16.9771 11.8133 16.2668 13.0789C15.5564 14.3445 14.5278 15.4027 13.2828 16.1486C12.0378 16.8945 10.6196 17.3023 9.1685 17.3317C7.71744 17.3611 6.28387 17.011 5.00971 16.316C3.73555 15.6211 2.66497 14.6054 1.90397 13.3696C1.14297 12.1337 0.717922 10.7206 0.670915 9.26999L0.666748 8.99999L0.670915 8.72999C0.717584 7.29082 1.13637 5.88829 1.88645 4.65915C2.63652 3.43001 3.69229 2.4162 4.95082 1.71656C6.20936 1.01692 7.6277 0.655322 9.06759 0.667023C10.5075 0.678724 11.9198 1.06332 13.1667 1.78333ZM7.75925 6.61666C7.58465 6.51272 7.37809 6.47616 7.17842 6.51385C6.97876 6.55154 6.79974 6.66088 6.67504 6.82131C6.55034 6.98174 6.48855 7.1822 6.5013 7.385C6.51404 7.58779 6.60044 7.77894 6.74425 7.92249L7.82092 8.99999L6.74425 10.0775L6.67508 10.1558C6.54557 10.3233 6.48467 10.5338 6.50475 10.7446C6.52483 10.9554 6.62438 11.1506 6.78318 11.2906C6.94199 11.4306 7.14814 11.505 7.35976 11.4985C7.57139 11.4921 7.77262 11.4053 7.92258 11.2558L9.00008 10.1792L10.0776 11.2558L10.1559 11.325C10.3234 11.4545 10.5339 11.5154 10.7447 11.4953C10.9555 11.4752 11.1507 11.3757 11.2907 11.2169C11.4307 11.0581 11.5051 10.8519 11.4986 10.6403C11.4921 10.4287 11.4054 10.2275 11.2559 10.0775L10.1792 8.99999L11.2559 7.92249L11.3251 7.84416C11.4546 7.67667 11.5155 7.46616 11.4954 7.25539C11.4753 7.04462 11.3758 6.84939 11.217 6.70937C11.0582 6.56934 10.852 6.49501 10.6404 6.50147C10.4288 6.50793 10.2275 6.5947 10.0776 6.74416L9.00008 7.82083L7.92258 6.74416L7.84425 6.67499L7.75925 6.61666Z" fill="#B0B8C1"/>
</svg>
