<svg width="25" height="24" viewBox="0 0 25 24" fill="none" xmlns="http://www.w3.org/2000/svg">
<path d="M20.5479 10.875L18.9166 9.24488V5.25C18.9166 4.63125 18.4104 4.125 17.7916 4.125H16.6666C16.0479 4.125 15.5416 4.63125 15.5416 5.25V5.87212L13.2916 3.62438C12.9845 3.33413 12.7033 3 12.1666 3C11.63 3 11.3488 3.33413 11.0416 3.62438L3.78538 10.875C3.43438 11.2406 3.16663 11.5073 3.16663 12C3.16663 12.6334 3.65263 13.125 4.29163 13.125H5.41663V19.875C5.41663 20.4938 5.92288 21 6.54163 21H8.79163C9.41295 21 9.91663 20.4963 9.91663 19.875V15.375C9.91663 14.7562 10.4229 14.25 11.0416 14.25H13.2916C13.9104 14.25 14.4166 14.7562 14.4166 15.375V19.875C14.4166 20.4963 14.3578 21 14.9791 21H17.7916C18.4104 21 18.9166 20.4938 18.9166 19.875V13.125H20.0416C20.6806 13.125 21.1666 12.6334 21.1666 12C21.1666 11.5073 20.8989 11.2406 20.5479 10.875Z" stroke="#6B7684" stroke-width="2" stroke-linejoin="round"/>
</svg>
