<svg width="28" height="27" viewBox="0 0 28 27" fill="none" xmlns="http://www.w3.org/2000/svg">
<path d="M12.8773 24.5213V23.4288C10.5987 23.1739 8.64341 22.2319 7.01154 20.6027C5.37966 18.9734 4.43649 17.0205 4.18201 14.7438H3.08826C2.77836 14.7438 2.51878 14.6389 2.30951 14.4292C2.10024 14.2194 1.99524 13.9602 1.99451 13.6514C1.99451 13.3418 2.09951 13.0822 2.30951 12.8724C2.51951 12.6627 2.77909 12.5582 3.08826 12.5589H4.18201C4.43722 10.2829 5.38076 8.33 7.01263 6.70006C8.64451 5.07011 10.5994 4.12805 12.8773 3.87388V2.78142C12.8773 2.47189 12.9823 2.21262 13.1923 2.00359C13.4023 1.79457 13.6619 1.68969 13.9711 1.68896C14.281 1.68896 14.5409 1.79384 14.7509 2.00359C14.9609 2.21334 15.0655 2.47262 15.0648 2.78142V3.87388C17.3435 4.12878 19.2987 5.07121 20.9306 6.70115C22.5625 8.3311 23.5057 10.2837 23.7601 12.5589H24.8539C25.1638 12.5589 25.4237 12.6638 25.6337 12.8735C25.8437 13.0833 25.9484 13.3426 25.9476 13.6514C25.9476 13.9609 25.843 14.2205 25.6337 14.4303C25.4245 14.64 25.1645 14.7445 24.8539 14.7438H23.7601C23.5049 17.0198 22.5617 18.9727 20.9306 20.6027C19.2995 22.2326 17.3442 23.1747 15.0648 23.4288V24.5213C15.0648 24.8308 14.9598 25.0905 14.7498 25.3002C14.5398 25.51 14.2802 25.6145 13.9711 25.6137C13.6612 25.6137 13.4012 25.5092 13.1912 25.3002C12.9812 25.0912 12.8766 24.8315 12.8773 24.5213ZM13.9711 21.2985C16.0857 21.2985 17.8903 20.552 19.3851 19.059C20.8799 17.566 21.6273 15.7634 21.6273 13.6514C21.6273 11.5393 20.8799 9.73672 19.3851 8.2437C17.8903 6.75068 16.0857 6.00416 13.9711 6.00416C11.8565 6.00416 10.0518 6.75068 8.55701 8.2437C7.06222 9.73672 6.31482 11.5393 6.31482 13.6514C6.31482 15.7634 7.06222 17.566 8.55701 19.059C10.0518 20.552 11.8565 21.2985 13.9711 21.2985ZM13.9711 18.0212C12.7679 18.0212 11.738 17.5933 10.8812 16.7375C10.0245 15.8818 9.59607 14.8531 9.59607 13.6514C9.59607 12.4497 10.0245 11.4209 10.8812 10.5652C11.738 9.70941 12.7679 9.28153 13.9711 9.28153C15.1742 9.28153 16.2041 9.70941 17.0609 10.5652C17.9177 11.4209 18.3461 12.4497 18.3461 13.6514C18.3461 14.8531 17.9177 15.8818 17.0609 16.7375C16.2041 17.5933 15.1742 18.0212 13.9711 18.0212ZM13.9711 15.8363C14.5726 15.8363 15.0878 15.6225 15.5165 15.195C15.9453 14.7675 16.1593 14.2529 16.1586 13.6514C16.1586 13.0505 15.9442 12.536 15.5154 12.1077C15.0867 11.6795 14.5719 11.4657 13.9711 11.4664C13.3695 11.4664 12.8544 11.6806 12.4256 12.1088C11.9969 12.537 11.7828 13.0512 11.7836 13.6514C11.7836 14.2522 11.9979 14.7668 12.4267 15.195C12.8554 15.6232 13.3702 15.837 13.9711 15.8363Z" fill="#1778FB"/>
</svg>
