<svg width="25" height="24" viewBox="0 0 25 24" fill="none" xmlns="http://www.w3.org/2000/svg">
<path d="M12.52 9.077C12.362 9.077 12.2393 9.00633 12.152 8.865C12.0653 8.72433 12.0653 8.58333 12.152 8.442L14.789 3.848C14.8837 3.69533 15.0053 3.59833 15.154 3.557C15.3027 3.515 15.455 3.52033 15.611 3.573C16.723 3.97433 17.7303 4.599 18.633 5.447C19.5357 6.295 20.235 7.27667 20.731 8.392C20.8143 8.58333 20.8113 8.74533 20.722 8.878C20.6333 9.01067 20.485 9.077 20.277 9.077H12.52ZM9.233 10.648L6.579 5.968C6.48433 5.81467 6.45733 5.65533 6.498 5.49C6.53933 5.32467 6.62133 5.19467 6.744 5.1C7.544 4.43067 8.438 3.91333 9.426 3.548C10.414 3.18267 11.4387 3 12.5 3C12.66 3 12.839 3.006 13.037 3.018C13.2343 3.03067 13.42 3.04733 13.594 3.068C13.7893 3.088 13.9243 3.16833 13.999 3.309C14.0743 3.45033 14.06 3.61467 13.956 3.802L9.973 10.648C9.88633 10.7893 9.763 10.86 9.603 10.86C9.443 10.86 9.31967 10.7893 9.233 10.648ZM4.293 14.116C4.14767 14.116 4.013 14.0627 3.889 13.956C3.765 13.8493 3.686 13.7243 3.652 13.581C3.59333 13.295 3.55333 13.0243 3.532 12.769C3.51067 12.5137 3.5 12.2573 3.5 12C3.5 11.0653 3.64833 10.1477 3.945 9.247C4.24233 8.347 4.67867 7.48767 5.254 6.669C5.386 6.50033 5.53767 6.416 5.709 6.416C5.88033 6.416 6.01967 6.515 6.127 6.713L9.981 13.481C10.0677 13.6217 10.0667 13.7627 9.978 13.904C9.88867 14.0453 9.76533 14.116 9.608 14.116H4.293ZM9.485 20.466C8.321 20.0473 7.271 19.4023 6.335 18.531C5.39833 17.659 4.69667 16.6653 4.23 15.55C4.14667 15.3587 4.15367 15.1967 4.251 15.064C4.34833 14.9313 4.501 14.865 4.709 14.865H12.609C12.7663 14.865 12.8853 14.9357 12.966 15.077C13.0467 15.2177 13.0433 15.3587 12.956 15.5L10.313 20.179C10.2177 20.3317 10.0957 20.4317 9.947 20.479C9.79833 20.5263 9.645 20.522 9.485 20.466ZM12.5 21C12.3433 21 12.177 20.994 12.001 20.982C11.825 20.97 11.6607 20.9533 11.508 20.932C11.3133 20.8987 11.1773 20.812 11.1 20.672C11.0233 20.53 11.0367 20.372 11.14 20.198L15.092 13.478C15.1793 13.338 15.3077 13.268 15.477 13.268C15.6463 13.268 15.7747 13.338 15.862 13.478L18.446 18.008C18.5373 18.1527 18.5653 18.3077 18.53 18.473C18.4947 18.6383 18.4113 18.7743 18.28 18.881C17.488 19.5503 16.5923 20.0707 15.593 20.442C14.5937 20.8133 13.5627 20.9993 12.5 21ZM18.89 17.298L15.025 10.481C14.9383 10.3397 14.936 10.1987 15.018 10.058C15.1 9.91733 15.22 9.84667 15.378 9.846H20.708C20.8527 9.846 20.9873 9.899 21.112 10.005C21.236 10.111 21.3147 10.2363 21.348 10.381C21.3947 10.6543 21.4313 10.9247 21.458 11.192C21.486 11.46 21.5 11.7293 21.5 12C21.5 12.9733 21.3547 13.9027 21.064 14.788C20.774 15.6727 20.3347 16.522 19.746 17.336C19.626 17.494 19.4793 17.574 19.306 17.576C19.1327 17.578 18.994 17.4853 18.89 17.298Z" fill="#6B7684"/>
</svg>
